# xmcd
#
# Track frame offsets:
#	150
#	9384
#	22277
#	35874
#	46666
#	63117
#	81378
#	98256
#	110587
#	125436
#	137311
#	149246
#	163440
#	176604
#
# Disc length: 2487 seconds
#
# Revision: 0
# Processed by: cddbd v1.5.1PL0 Copyright (c) Steve Scherf et al.
# Submitted via: dBpowerAMP V4.0
#
DISCID=c109b50e
DTITLE=Antares - countryline dance songs
DYEAR=1900
DGENRE=line dance
TTITLE0=buckaroo
TTITLE1=help me make it trough the night
TTITLE2=no one knows
TTITLE3=short notice
TTITLE4=here comes the rain
TTITLE5=united they'll stand
TTITLE6=lovin' all night
TTITLE7=sea of heartbreak
TTITLE8=the writing on the wall
TTITLE9=teach your children
TTITLE10=haunted heart
TTITLE11=arizona
TTITLE12=misty
TTITLE13=freight trai
EXTD=
EXTT0=
EXTT1=
EXTT2=
EXTT3=
EXTT4=
EXTT5=
EXTT6=
EXTT7=
EXTT8=
EXTT9=
EXTT10=
EXTT11=
EXTT12=
EXTT13=
PLAYORDER=
